<svg width="1200" height="420" viewBox="0 0 1200 420" fill="none" xmlns="http://www.w3.org/2000/svg">
  <rect x="82" y="86" width="246" height="248" rx="72" fill="#EEF2F1" stroke="#6F8380" stroke-width="8"/>

  <circle cx="175" cy="214" r="54" fill="#DDE7E5" stroke="#7A908B" stroke-width="4"/>
  <circle cx="175" cy="214" r="30" stroke="#A6B7B3" stroke-width="2"/>
  <circle cx="236" cy="206" r="54" fill="#DDE7E5" stroke="#7A908B" stroke-width="4"/>
  <circle cx="236" cy="206" r="30" stroke="#A6B7B3" stroke-width="2"/>

  <rect x="118" y="118" width="10" height="44" rx="5" fill="#90A8A2"/>
  <rect x="282" y="118" width="10" height="62" rx="5" fill="#90A8A2"/>

  <path d="M151 286V134H177L233 212V134H257V286H233L177 208V286H151Z" fill="#2F4742"/>

  <text x="360" y="247" font-size="158" letter-spacing="5" font-family="Avenir Next, Montserrat, Poppins, sans-serif" font-weight="800" fill="#29403B">NISH</text>
  <text x="906" y="247" font-size="62" letter-spacing="10" font-family="Avenir Next, Montserrat, Poppins, sans-serif" font-weight="600" fill="#6F8781">DJ</text>

  <rect x="360" y="278" width="420" height="6" rx="3" fill="#B8C8C3"/>
  <rect x="794" y="270" width="18" height="14" rx="3" fill="#9AAFA8"/>
  <rect x="818" y="264" width="18" height="20" rx="3" fill="#88A098"/>
  <rect x="842" y="258" width="18" height="26" rx="3" fill="#76928A"/>
  <rect x="866" y="264" width="18" height="20" rx="3" fill="#88A098"/>
</svg>
