<svg width="1400" height="440" viewBox="0 0 1400 440" fill="none" xmlns="http://www.w3.org/2000/svg">
  <!-- Wordmark base -->
  <text x="170" y="278" font-size="226" letter-spacing="6" font-family="Avenir Next, Montserrat, Poppins, sans-serif" font-weight="800" fill="#273944">NISH</text>
  <text x="1028" y="278" font-size="76" letter-spacing="12" font-family="Avenir Next, Montserrat, Poppins, sans-serif" font-weight="600" fill="#6E8792">DJ</text>

  <!-- Headphone over H -->
  <path d="M645 162C645 128 672 101 706 101C740 101 767 128 767 162" stroke="#516775" stroke-width="13" stroke-linecap="round"/>
  <rect x="634" y="155" width="23" height="66" rx="10" fill="#516775"/>
  <rect x="755" y="155" width="23" height="66" rx="10" fill="#516775"/>

  <!-- Emphasize H connection point -->
  <line x1="708" y1="157" x2="708" y2="266" stroke="#3F5561" stroke-width="6" stroke-linecap="round" opacity="0.55"/>

  <!-- Cable plugged into H -->
  <path d="M767 214C808 218 846 235 876 259C907 284 947 302 1028 302" stroke="#8F7A6D" stroke-width="8" stroke-linecap="round"/>
  <rect x="1028" y="294" width="33" height="15" rx="4" fill="#8F7A6D"/>
  <rect x="1060" y="297" width="11" height="9" rx="2" fill="#6E5D52"/>

  <line x1="171" y1="322" x2="1110" y2="322" stroke="#C0CDD3" stroke-width="5" stroke-linecap="round"/>
</svg>
