<svg width="640" height="640" viewBox="0 0 640 640" fill="none" xmlns="http://www.w3.org/2000/svg">
  <circle cx="320" cy="320" r="286" fill="#F2F4F8" stroke="#7A8FA3" stroke-width="16"/>
  <circle cx="320" cy="320" r="208" stroke="#AEBBC8" stroke-width="4"/>

  <path d="M150 320C150 226 226 150 320 150C414 150 490 226 490 320" stroke="#516477" stroke-width="18" stroke-linecap="round"/>
  <rect x="136" y="288" width="23" height="64" rx="10" fill="#516477"/>
  <rect x="481" y="288" width="23" height="64" rx="10" fill="#516477"/>

  <path d="M420 252C440 244 457 250 468 264C476 274 480 286 480 300V333" stroke="#B48C88" stroke-width="8" stroke-linecap="round"/>
  <circle cx="480" cy="339" r="9" fill="#B48C88"/>

  <g transform="translate(231 186) scale(0.88)">
    <path d="M 3.00 162.00 Q 5.00 173.00 8.50 183.00 Q 12.00 193.00 16.00 201.00 Q 20.00 209.00 21.00 209.50 Q 22.00 210.00 22.50 212.00 Q 23.00 214.00 26.50 218.00 Q 30.00 222.00 30.00 223.00 Q 30.00 224.00 31.50 225.00 Q 33.00 226.00 33.00 227.00 Q 33.00 228.00 35.00 229.50 Q 37.00 231.00 37.00 232.00 Q 37.00 233.00 43.50 239.00 Q 50.00 245.00 55.00 247.00 Q 60.00 249.00 64.50 249.00 Q 69.00 249.00 83.00 244.00 Q 97.00 239.00 106.00 239.00 Q 115.00 239.00 126.00 243.50 Q 137.00 248.00 142.50 248.50 Q 148.00 249.00 152.50 248.00 Q 157.00 247.00 160.50 245.00 Q 164.00 243.00 165.50 241.00 Q 167.00 239.00 168.00 239.00 Q 169.00 239.00 174.50 232.50 Q 180.00 226.00 180.00 225.00 Q 180.00 224.00 185.00 217.50 Q 190.00 211.00 196.00 197.50 Q 202.00 184.00 201.50 183.00 Q 201.00 182.00 199.00 181.50 Q 197.00 181.00 193.00 177.50 Q 189.00 174.00 188.00 174.00 Q 187.00 174.00 184.00 171.00 Q 181.00 168.00 176.50 160.50 Q 172.00 153.00 170.50 147.50 Q 169.00 142.00 169.00 132.00 Q 169.00 122.00 170.50 117.00 Q 172.00 112.00 176.00 105.00 Q 180.00 98.00 185.00 93.00 Q 190.00 88.00 192.50 87.00 Q 195.00 86.00 195.00 85.00 Q 195.00 84.00 187.50 76.50 Q 180.00 69.00 172.00 65.50 Q 164.00 62.00 158.00 61.00 Q 152.00 60.00 141.50 61.00 Q 131.00 62.00 118.00 67.00 Q 105.00 72.00 100.50 71.50 Q 96.00 71.00 89.50 68.00 Q 83.00 65.00 76.00 63.00 Q 69.00 61.00 61.50 61.00 Q 54.00 61.00 48.00 62.50 Q 42.00 64.00 34.00 68.50 Q 26.00 73.00 19.50 80.00 Q 13.00 87.00 9.50 93.50 Q 6.00 100.00 3.00 113.00 Q 0.00 126.00 0.50 138.50 Q 1.00 151.00 3.00 162.00 Z M 150.00 7.50 Q 150.00 0.00 142.50 1.50 Q 135.00 3.00 127.50 7.50 Q 120.00 12.00 116.00 16.00 Q 112.00 20.00 108.00 26.50 Q 104.00 33.00 102.00 40.00 Q 100.00 47.00 100.00 52.00 Q 100.00 57.00 105.50 57.00 Q 111.00 57.00 121.00 52.00 Q 131.00 47.00 137.00 40.00 Q 143.00 33.00 146.50 24.00 Q 150.00 15.00 150.00 7.50 Z" fill="#30465A"/>
  </g>

  <text x="320" y="545" text-anchor="middle" font-size="58" letter-spacing="8" font-family="Avenir Next, Montserrat, Poppins, sans-serif" font-weight="700" fill="#5B7083">NISH</text>
</svg>
