<svg width="1200" height="420" viewBox="0 0 1200 420" fill="none" xmlns="http://www.w3.org/2000/svg">
  <circle cx="205" cy="210" r="122" fill="#F2F4F8" stroke="#728397" stroke-width="8"/>
  <circle cx="205" cy="210" r="88" stroke="#AAB6C3" stroke-width="3"/>

  <path d="M110 210C110 158 152 116 205 116C258 116 300 158 300 210" stroke="#516477" stroke-width="14" stroke-linecap="round"/>
  <rect x="98" y="192" width="20" height="50" rx="9" fill="#516477"/>
  <rect x="292" y="192" width="20" height="50" rx="9" fill="#516477"/>

  <path d="M228 164C240 158 251 159 259 168C266 175 270 184 270 194V224" stroke="#B48C88" stroke-width="6" stroke-linecap="round"/>
  <circle cx="270" cy="229" r="8" fill="#B48C88"/>

  <path d="M153 286V134H179L235 212V134H259V286H235L179 208V286H153Z" fill="#30465A"/>

  <text x="360" y="247" font-size="158" letter-spacing="5" font-family="Avenir Next, Montserrat, Poppins, sans-serif" font-weight="800" fill="#273C50">NISH</text>
  <text x="906" y="247" font-size="62" letter-spacing="10" font-family="Avenir Next, Montserrat, Poppins, sans-serif" font-weight="600" fill="#8E6E69">DJ</text>
  <line x1="360" y1="286" x2="920" y2="286" stroke="#C7D0DA" stroke-width="4" stroke-linecap="round"/>
</svg>
